<svg xmlns="http://www.w3.org/2000/svg" id="_bottom" stroke-width="0" xmlns:xlink="http://www.w3.org/1999/xlink" stroke-linecap="round" stroke-linejoin="round" viewBox="123444 -99316.441 12700 20830.441"><defs><circle id="tool-D11-pad-1001" r="875"/><circle id="tool-D12-pad-1002" r="342.9"/><circle id="tool-D11-pad-1006" r="925"/><circle id="tool-T1-pad-1056" r="165"/><circle id="tool-T2-pad-1057" r="500"/><g id="_bottom-cu" fill="currentColor" stroke="currentColor"><use x="129540" y="-97790" xlink:href="#tool-D11-pad-1001"/><use x="132080" y="-97790" xlink:href="#tool-D11-pad-1001"/><use x="127000" y="-80010" xlink:href="#tool-D11-pad-1001"/><use x="129540" y="-80010" xlink:href="#tool-D11-pad-1001"/><use x="132080" y="-80010" xlink:href="#tool-D11-pad-1001"/><use x="134620" y="-80010" xlink:href="#tool-D11-pad-1001"/><use x="128940" y="-88900" xlink:href="#tool-D12-pad-1002"/><use x="130140" y="-88900" xlink:href="#tool-D12-pad-1002"/><use x="129540" y="-88300" xlink:href="#tool-D12-pad-1002"/><use x="129540" y="-89500" xlink:href="#tool-D12-pad-1002"/><use x="129540" y="-88900" xlink:href="#tool-D12-pad-1002"/><use x="125100" y="-79700" xlink:href="#tool-D12-pad-1002"/><use x="124750" y="-90500" xlink:href="#tool-D12-pad-1002"/><use x="125900" y="-97600" xlink:href="#tool-D12-pad-1002"/><use x="131300" y="-82700" xlink:href="#tool-D12-pad-1002"/><use x="134392.885" y="-86393.047" xlink:href="#tool-D12-pad-1002"/><use x="126617.329" y="-90515.594" xlink:href="#tool-D12-pad-1002"/><use x="129504.189" y="-91474.7" xlink:href="#tool-D12-pad-1002"/><use x="132344.301" y="-90063.301" xlink:href="#tool-D12-pad-1002"/><use x="129035.615" y="-82625.705" xlink:href="#tool-D12-pad-1002"/><use x="132699.324" y="-87092.437" xlink:href="#tool-D12-pad-1002"/><path fill="none" stroke-width="225" d="M125100-80184.933V-79700m4440-310l-1190-1190m0 0h-2234.933m0 0L125100-80184.933M125900-97600v5950m0 0l-1150 1150m7330-7290l-1187.5 1187.5m0 0h-3995m0 0l-997.5-997.5m4827.5 16402.5h678.65m0 0h2026.35M131300-82700v1396.348m0 0l106.15 106.15m2986.735-5195.545v6155.932m0 0L134620-80010m-5080 0l1187.5-1187.5m2705 0l312.5 312.5m0 0l875 875m-4737.1-8632.9l-342.9 342.9m3144.853-342.9H129882.9m4509.985 2249.853v-541.82m0 0l-1708.032-1708.032m-5582.59-1872.694h-484.934m1927.753 0h-1442.82m2401.926-959.106l-959.107 959.106m2370.505 452.293l-1068.5-1068.5m0 0l-342.9-342.9m2840.113 1411.4h-1428.712m-1879.973 6952.662v484.933m0-803.023v318.09m3663.71-3981.8l-3663.71 3663.71"/><path d="M135780.5-96114.207l-79.35-579.076-186.782-542.373-288.57-495.758-379.368-430.27-455.717-348.39-514.71-253.24-533.75-142.99v11876.907l-24.49 123.678-48.045 116.567-69.77 105.014-88.84 89.463-104.526 70.503-116.227 48.857-123.504 25.352-126.076.88-1.208-.23-3191.45 3191.45v137.168l76.526 72.875 72.676 103.025 51.28 115.18 27.934 122.945 2.01 144.007-24.488 123.678-48.045 116.566-69.772 105.013-88.84 89.462-104.525 70.503-116.227 48.857-123.504 25.352-126.077.88-123.846-23.625-116.9-47.23-105.498-69.036-90.08-88.213-71.23-104.03-49.67-115.884-26.212-123.325-1.76-126.067 22.76-124.008 46.412-117.225 68.298-105.978 87.582-90.694 6.193-4.304v-306.758l3.72-37.932 3.32-37.948.604-2.083.21-2.16 11.018-36.49 10.627-36.577.997-1.924.628-2.08 17.896-33.658 17.527-33.813 1.353-1.696 1.02-1.916 24.1-29.55 23.754-29.757 2.977-3.018.05-.062.056-.046.96-.974 3313.22-3313.22-1.574-112.864 22.758-124.008 46.413-117.225 68.3-105.978 87.58-90.694 103.53-71.954 115.536-50.476 123.138-27.074 126.05-2.64 124.165 21.893 117.546 45.593 106.452 67.556 91.303 86.946 72.677 103.025 51.28 115.18 27.934 122.946 2.012 144.007v-11876.907l-20.334-5.448-334.69-22.214v8933.705l-24.488 123.677-48.045 116.566-69.77 105.014-88.84 89.462-104.526 70.502-116.228 48.857-123.504 25.35-126.077.88-123.845-23.624-116.898-47.23-105.5-69.036-90.08-88.213-1.88-2.748h-931.96l-37.932-3.72-37.947-3.32-2.084-.605-2.158-.212-36.492-11.017-36.575-10.627-1.926-.998-2.078-.628-33.638-17.885-33.834-17.54-1.698-1.354-1.912-1.017-29.528-24.083-29.78-23.773-3.015-2.973-.064-.053-.05-.06-.97-.957-1060.55-1060.55-117.717.822-1.21-.23-607.665 607.666-29.478 24.213-29.155 24.465-1.9 1.045-1.677 1.377-33.578 18.005-33.393 18.357-2.07.656-1.91 1.024-36.43 11.138-36.327 11.524-2.156.242-2.073.634-37.926 3.853-37.848 4.246-4.235.03-.084.008-.08-.007-1.36.01h-1431.304l-84.668 85.26-104.525 70.502-116.227 48.856-123.504 25.352-126.077.88-123.847-23.625-116.898-47.23-105.5-69.036-90.08-88.213-71.23-104.03-49.668-115.884-26.213-123.324-1.76-126.067 22.76-124.01 46.412-117.224 68.298-105.978 87.582-90.694 103.53-71.955 115.535-50.477 123.14-27.074 126.05-2.64 124.164 21.892 117.547 45.594 106.453 67.556 91.303 86.947 6.784 9.616h1261.08l487.8-487.8-1.576-112.863 22.76-124.008 46.412-117.225 68.298-105.978 87.582-90.694 103.53-71.955 115.535-50.476 123.14-27.074 126.05-2.64 124.164 21.893 117.547 45.594 106.453 67.556 91.303 86.947 72.676 103.025 51.28 115.18 27.934 122.945 1.96 140.482 939.385 939.384h762.422l76.736-79.463 103.53-71.955 115.535-50.476 123.138-27.074 126.052-2.64 124.164 21.893 117.547 45.594 106.452 67.555 91.303 86.947 72.676 103.025 51.28 115.18 27.934 122.945 2.01 144.007v-8933.706l-254.877-16.918-4.65.162-3.818-.24-3.807.427-5.075.035h-2989.68l132.19 23.308 214.834 83.33 194.558 123.47 166.87 158.908 132.828 188.294 93.724 210.508 51.05 224.703 3.676 263.195-44.757 226.04-87.81 213.043-127.518 191.93-162.368 163.505-191.035 128.855-212.424 89.295-225.723 46.334-230.424 1.61-226.346-43.18-213.65-86.32-192.816-126.174-164.635-161.223-130.185-190.13-90.776-211.796-47.91-225.394-3.216-230.407 41.597-226.644 84.826-214.25 124.825-193.69 160.07-165.757 189.216-131.51 211.158-92.25 171.024-37.603h-2080.665l-670.737 42.494-626.373 165.788-582.24 284.293-515.93 391.967-429.972 484.716-327.637 559.002-212.817 611.99-92.285 658.743-.015.396v14707.334l43.16 440.186 122.677 406.328 199.26 374.754 268.26 328.917 327.033 270.545 373.356 201.873 405.458 125.51 439.206 46.162h826.74l-146.006-27.852-213.65-86.32-192.816-126.175-164.635-161.223-130.185-190.13-90.776-211.796-47.91-225.394-3.216-230.407 41.597-226.644 84.826-214.25 124.825-193.69 160.07-165.757 189.216-131.51 211.158-92.25 225.054-49.482 230.38-4.825 226.928 40.013 214.834 83.33 194.558 123.47 166.87 158.908 132.828 188.294 93.724 210.508 51.05 224.703 3.676 263.195-44.757 226.04-87.81 213.043-127.518 191.93-162.368 163.505-191.035 128.855-212.424 89.295-158.9 32.617h4702.41l-146.004-27.852-213.65-86.32-192.816-126.175-164.635-161.223-130.185-190.13-90.776-211.796-47.91-225.394-3.216-230.407 41.597-226.644 84.826-214.25 124.825-193.69 160.07-165.757 189.216-131.51 211.158-92.25 225.054-49.482 230.38-4.825 226.928 40.013 214.834 83.33 194.558 123.47 166.87 158.908 132.828 188.294 93.724 210.508 51.05 224.703 3.676 263.195-44.757 226.04-87.81 213.043-127.518 191.93-162.368 163.505-191.035 128.855-212.424 89.295-158.9 32.617h2331.986l242.846-23.81 216.498-65.366 199.68-106.172 175.252-142.932 144.153-174.252 107.562-198.93 66.874-216.034 25.41-241.768v-16095.443z"/><path fill="none" stroke-width="200" d="M135780.5-96114.207l-79.35-579.076-186.782-542.373-288.57-495.758-379.368-430.27-455.717-348.39-514.71-253.24-533.75-142.99v11876.907l-24.49 123.678-48.045 116.567-69.77 105.014-88.84 89.463-104.526 70.503-116.227 48.857-123.504 25.352-126.076.88-1.208-.23-3191.45 3191.45v137.168l76.526 72.875 72.676 103.025 51.28 115.18 27.934 122.945 2.01 144.007-24.488 123.678-48.045 116.566-69.772 105.013-88.84 89.462-104.525 70.503-116.227 48.857-123.504 25.352-126.077.88-123.846-23.625-116.9-47.23-105.498-69.036-90.08-88.213-71.23-104.03-49.67-115.884-26.212-123.325-1.76-126.067 22.76-124.008 46.412-117.225 68.298-105.978 87.582-90.694 6.193-4.304v-306.758l3.72-37.932 3.32-37.948.604-2.083.21-2.16 11.018-36.49 10.627-36.577.997-1.924.628-2.08 17.896-33.658 17.527-33.813 1.353-1.696 1.02-1.916 24.1-29.55 23.754-29.757 2.977-3.018.05-.062.056-.046.96-.974 3313.22-3313.22-1.574-112.864 22.758-124.008 46.413-117.225 68.3-105.978 87.58-90.694 103.53-71.954 115.536-50.476 123.138-27.074 126.05-2.64 124.165 21.893 117.546 45.593 106.452 67.556 91.303 86.946 72.677 103.025 51.28 115.18 27.934 122.946 2.012 144.007v-11876.907l-20.334-5.448-334.69-22.214v8933.705l-24.488 123.677-48.045 116.566-69.77 105.014-88.84 89.462-104.526 70.502-116.228 48.857-123.504 25.35-126.077.88-123.845-23.624-116.898-47.23-105.5-69.036-90.08-88.213-1.88-2.748h-931.96l-37.932-3.72-37.947-3.32-2.084-.605-2.158-.212-36.492-11.017-36.575-10.627-1.926-.998-2.078-.628-33.638-17.885-33.834-17.54-1.698-1.354-1.912-1.017-29.528-24.083-29.78-23.773-3.015-2.973-.064-.053-.05-.06-.97-.957-1060.55-1060.55-117.717.822-1.21-.23-607.665 607.666-29.478 24.213-29.155 24.465-1.9 1.045-1.677 1.377-33.578 18.005-33.393 18.357-2.07.656-1.91 1.024-36.43 11.138-36.327 11.524-2.156.242-2.073.634-37.926 3.853-37.848 4.246-4.235.03-.084.008-.08-.007-1.36.01h-1431.304l-84.668 85.26-104.525 70.502-116.227 48.856-123.504 25.352-126.077.88-123.847-23.625-116.898-47.23-105.5-69.036-90.08-88.213-71.23-104.03-49.668-115.884-26.213-123.324-1.76-126.067 22.76-124.01 46.412-117.224 68.298-105.978 87.582-90.694 103.53-71.955 115.535-50.477 123.14-27.074 126.05-2.64 124.164 21.892 117.547 45.594 106.453 67.556 91.303 86.947 6.784 9.616h1261.08l487.8-487.8-1.576-112.863 22.76-124.008 46.412-117.225 68.298-105.978 87.582-90.694 103.53-71.955 115.535-50.476 123.14-27.074 126.05-2.64 124.164 21.893 117.547 45.594 106.453 67.556 91.303 86.947 72.676 103.025 51.28 115.18 27.934 122.945 1.96 140.482 939.385 939.384h762.422l76.736-79.463 103.53-71.955 115.535-50.476 123.138-27.074 126.052-2.64 124.164 21.893 117.547 45.594 106.452 67.555 91.303 86.947 72.676 103.025 51.28 115.18 27.934 122.945 2.01 144.007v-8933.706l-254.877-16.918-4.65.162-3.818-.24-3.807.427-5.075.035h-2989.68l132.19 23.308 214.834 83.33 194.558 123.47 166.87 158.908 132.828 188.294 93.724 210.508 51.05 224.703 3.676 263.195-44.757 226.04-87.81 213.043-127.518 191.93-162.368 163.505-191.035 128.855-212.424 89.295-225.723 46.334-230.424 1.61-226.346-43.18-213.65-86.32-192.816-126.174-164.635-161.223-130.185-190.13-90.776-211.796-47.91-225.394-3.216-230.407 41.597-226.644 84.826-214.25 124.825-193.69 160.07-165.757 189.216-131.51 211.158-92.25 171.024-37.603h-2080.665l-670.737 42.494-626.373 165.788-582.24 284.293-515.93 391.967-429.972 484.716-327.637 559.002-212.817 611.99-92.285 658.743-.015.396v14707.334l43.16 440.186 122.677 406.328 199.26 374.754 268.26 328.917 327.033 270.545 373.356 201.873 405.458 125.51 439.206 46.162h826.74l-146.006-27.852-213.65-86.32-192.816-126.175-164.635-161.223-130.185-190.13-90.776-211.796-47.91-225.394-3.216-230.407 41.597-226.644 84.826-214.25 124.825-193.69 160.07-165.757 189.216-131.51 211.158-92.25 225.054-49.482 230.38-4.825 226.928 40.013 214.834 83.33 194.558 123.47 166.87 158.908 132.828 188.294 93.724 210.508 51.05 224.703 3.676 263.195-44.757 226.04-87.81 213.043-127.518 191.93-162.368 163.505-191.035 128.855-212.424 89.295-158.9 32.617h4702.41l-146.004-27.852-213.65-86.32-192.816-126.175-164.635-161.223-130.185-190.13-90.776-211.796-47.91-225.394-3.216-230.407 41.597-226.644 84.826-214.25 124.825-193.69 160.07-165.757 189.216-131.51 211.158-92.25 225.054-49.482 230.38-4.825 226.928 40.013 214.834 83.33 194.558 123.47 166.87 158.908 132.828 188.294 93.724 210.508 51.05 224.703 3.676 263.195-44.757 226.04-87.81 213.043-127.518 191.93-162.368 163.505-191.035 128.855-212.424 89.295-158.9 32.617h2331.986l242.846-23.81 216.498-65.366 199.68-106.172 175.252-142.932 144.153-174.252 107.562-198.93 66.874-216.034 25.41-241.768v-16095.443"/></g><mask id="_bottom_mech-mask" fill="#fff" fill-rule="evenodd" stroke="#fff"><path d="M123444-95758a3685.19 3685.19 0 0 1 3810-3556h5461a3304.44 3304.44 0 0 1 3429 3175v16129a1524 1524 0 0 1-1524 1524h-8636a2540 2540 0 0 1-2540-2540z"/><g id="_bottom-drl" fill="#000" stroke="#000"><use x="124750" y="-90500" xlink:href="#tool-T1-pad-1056"/><use x="125100" y="-79700" xlink:href="#tool-T1-pad-1056"/><use x="125900" y="-97600" xlink:href="#tool-T1-pad-1056"/><use x="126617" y="-90516" xlink:href="#tool-T1-pad-1056"/><use x="128940" y="-88900" xlink:href="#tool-T1-pad-1056"/><use x="129036" y="-82626" xlink:href="#tool-T1-pad-1056"/><use x="129504" y="-91475" xlink:href="#tool-T1-pad-1056"/><use x="129540" y="-88300" xlink:href="#tool-T1-pad-1056"/><use x="129540" y="-88900" xlink:href="#tool-T1-pad-1056"/><use x="129540" y="-89500" xlink:href="#tool-T1-pad-1056"/><use x="130140" y="-88900" xlink:href="#tool-T1-pad-1056"/><use x="131300" y="-82700" xlink:href="#tool-T1-pad-1056"/><use x="132344" y="-90063" xlink:href="#tool-T1-pad-1056"/><use x="132699" y="-87092" xlink:href="#tool-T1-pad-1056"/><use x="134393" y="-86393" xlink:href="#tool-T1-pad-1056"/><use x="127000" y="-80010" xlink:href="#tool-T2-pad-1057"/><use x="129540" y="-80010" xlink:href="#tool-T2-pad-1057"/><use x="129540" y="-97790" xlink:href="#tool-T2-pad-1057"/><use x="132080" y="-80010" xlink:href="#tool-T2-pad-1057"/><use x="132080" y="-97790" xlink:href="#tool-T2-pad-1057"/><use x="134620" y="-80010" xlink:href="#tool-T2-pad-1057"/></g></mask></defs><g mask="url(#_bottom_mech-mask)" transform="rotate(180 129794 -88901.22)"><path fill="currentColor" d="M123444-99316.44h12700V-78486h-12700z" class="_board-fr4"/><use class="_board-cu" xlink:href="#_bottom-cu"/><defs><g id="_bottom-sm" fill="currentColor" stroke="currentColor"><use x="129540" y="-97790" xlink:href="#tool-D11-pad-1006"/><use x="132080" y="-97790" xlink:href="#tool-D11-pad-1006"/><use x="127000" y="-80010" xlink:href="#tool-D11-pad-1006"/><use x="129540" y="-80010" xlink:href="#tool-D11-pad-1006"/><use x="132080" y="-80010" xlink:href="#tool-D11-pad-1006"/><use x="134620" y="-80010" xlink:href="#tool-D11-pad-1006"/></g><mask id="_bottom-sm_mask" color="#000"><path fill="#fff" d="M123444-99316.44h12700V-78486h-12700z"/><use xlink:href="#_bottom-sm"/></mask><mask id="_bottom-cu_finish-mask" color="#fff"><use xlink:href="#_bottom-cu"/></mask></defs><g mask="url(#_bottom-sm_mask)"><path fill="currentColor" d="M123444-99316.44h12700V-78486h-12700z" class="_board-sm"/><path id="_bottom-ss" fill="none" stroke="currentColor" stroke-width="127" d="M131419.57-80941.857h-457.142m228.57-228.572v457.144m-4851.427-228.57h-457.142m228.57-228.573v457.144m2768.573-18008.57h-457.142m228.57-228.573v457.144m5055.574 14801.357h-342.857m171.43-600v600m-371.43-600v600m-942.857-285.713l-85.714-28.57-28.572-28.573-28.57-57.143v-85.713l28.57-57.143 28.572-28.57 57.142-28.573h228.572v600h-200l-57.143-28.57-28.57-28.57-28.573-57.144v-57.143l28.572-57.143 28.57-28.57 57.144-28.573h200m-1000-371.428l57.143 28.57 57.144 57.143 85.714 85.714 57.143 28.572h57.144m-28.572-142.86l57.143 28.573 57.143 57.143 28.57 114.285v200l-28.57 114.287-57.143 57.143-57.143 28.57h-114.286l-57.142-28.57-57.143-57.143-28.57-114.286v-200l28.57-114.284 57.144-57.143 57.142-28.572h114.286m-485.714 542.86l-28.57 28.57-57.144 28.57h-142.857l-57.143-28.57-28.57-28.57-28.573-57.144v-57.143l28.573-85.714 342.857-342.86H130878m-542.856 600h285.714l28.57-285.713-28.57 28.572-57.143 28.57h-142.857l-57.143-28.57-28.57-28.573-28.573-57.143v-142.857l28.572-57.143 28.57-28.57 57.144-28.573h142.857l57.143 28.573 28.57 28.57m-885.713 542.858h285.714l28.57-285.713-28.57 28.572-57.144 28.57h-142.857l-57.144-28.57-28.57-28.573-28.573-57.143v-142.857l28.572-57.143 28.57-28.57 57.144-28.573h142.856l57.143 28.573 28.57 28.57m-542.857 542.858h-400l257.143-600m-600 600h-57.144l-57.143-28.57-28.572-28.57-28.57-57.144-28.573-114.286v-142.857l28.572-114.286 28.57-57.143 28.572-28.57 57.142-28.573h57.143l57.143 28.573 28.57 28.57 28.573 57.144 28.572 114.286v142.857l-28.57 114.286-28.573 57.143-28.572 28.57-57.143 28.57m-914.286-600v600m0-285.713h-342.858m0-314.286v600m-542.857-600v314.287l28.57 57.143 57.144 28.57h114.285l57.143-28.57m-257.143-342.857l57.143-28.572h142.857l57.143 28.573 28.57 57.143v57.143l-28.57 57.14-57.143 28.573h-142.857l-57.143 28.57m-285.714-257.142v400m0-114.284l-28.57 57.143-28.572 28.57-57.143 28.57h-57.143m-142.857 0l-142.857-400-142.858 400m-457.143-371.427l57.143-28.572h114.286l57.143 28.573 28.57 57.143v228.57l-28.57 57.144-57.144 28.57h-114.286l-57.143-28.57-28.57-57.143v-57.143l285.713-57.143m-514.286-171.427l-57.143-28.572h-114.284l-57.143 28.573-28.572 57.143v28.57l28.573 57.144 57.143 28.57h85.714l57.143 28.573 28.57 57.143v28.57l-28.57 57.144-57.143 28.57h-85.714l-57.143-28.57m-200 28.57h-228.57m142.856 200v-514.284l-28.573-57.143-57.142-28.572h-57.143m-428.572 28.573l57.143-28.572H124478l57.142 28.573 28.57 57.143v228.57l-28.57 57.144-57.143 28.57h-114.287l-57.143-28.57-28.57-57.143v-57.143l285.713-57.143m-542.857-200v400m0-114.284l-28.572 57.143-28.57 28.57-57.144 28.57h-57.143m8342.86-1367l200 285.716m142.856-285.715v600h-228.572l-57.14-28.57-28.573-28.57-28.57-57.144v-85.715l28.57-57.14 28.572-28.573 57.14-28.57h228.573m-828.572-257.144l57.144-28.572H131878l57.143 28.573 28.57 57.143v228.57l-28.57 57.144-57.143 28.57h-114.286l-57.143-28.57-28.57-57.143v-57.143l285.714-57.143m-457.143 200H131278m142.857-400v514.287l-28.572 57.143-57.142 28.57H131278m-428.572-571.427l57.143-28.572h114.287l57.143 28.573 28.57 57.143v228.57l-28.57 57.144-57.143 28.57h-114.286l-57.142-28.57-28.57-57.143v-57.143l285.713-57.143m-542.856-200v400m0-114.284l-28.572 57.143-28.57 28.57-57.144 28.57h-57.143m-428.572-371.427l57.143-28.572h114.286l57.143 28.573 28.57 57.143v228.57l-28.57 57.144-57.143 28.57h-114.286l-57.143-28.57-28.57-57.143v-57.143l285.713-57.143m-542.857 200v-400m0 342.86l-28.573 28.57-57.142 28.57h-85.715l-57.143-28.57-28.57-57.143v-314.286m-542.858 28.573l57.142-28.572h114.286l57.142 28.573 28.572 28.57 28.57 57.144v171.43l-28.57 57.142-28.572 28.57-57.142 28.57h-114.286l-57.143-28.57m-485.716-342.857l57.143-28.572h114.286l57.143 28.573 28.57 57.143v228.57l-28.57 57.144-57.143 28.57h-114.286l-57.143-28.57-28.57-57.143v-57.143l285.713-57.143m-1257.143-200v600m0-571.427l57.143-28.572h114.286l57.142 28.573 28.572 28.57 28.57 57.144v171.43l-28.57 57.142-28.572 28.57-57.142 28.57h-114.286l-57.143-28.57m-514.286-342.857l57.143-28.572h114.287l57.143 28.573 28.57 57.143v228.57l-28.57 57.144-57.143 28.57h-114.286l-57.142-28.57-28.57-57.143v-57.143l285.713-57.143m-514.285-171.427l-57.143-28.572h-114.285l-57.143 28.573-28.572 57.143v28.57l28.572 57.144 57.143 28.57h85.714l57.144 28.573 28.57 57.143v28.57l-28.57 57.144-57.143 28.57h-85.713l-57.143-28.57m-285.714-371.43v400m0 200l28.57-28.57-28.57-28.57-28.572 28.57 28.572 28.57v-57.14m-542.857-142.86v-485.713l28.57-57.143 28.573-28.57 57.143-28.573h85.713l57.143 28.573m-257.143 200l57.143-28.572h114.286l57.142 28.573 28.572 28.57 28.57 57.144v171.43l-28.57 57.142-28.572 28.57-57.142 28.57h-114.286l-57.143-28.57m-285.714 28.57v-400m0 342.86l-28.573 28.57-57.142 28.57h-85.715l-57.143-28.57-28.57-57.143v-314.286m7642.856-938.427l-85.714-28.572h-142.858l-57.143 28.573-28.572 28.57-28.572 57.144v57.143l28.572 57.143 28.57 28.57 57.144 28.573 114.286 28.57 57.142 28.573 28.572 28.57 28.57 57.143v57.143l-28.57 57.143-28.572 28.57-57.142 28.57h-142.858l-85.714-28.57m-171.43-171.43h-228.57m142.857 200v-514.284l-28.572-57.143-57.14-28.572h-57.144m-428.572 28.573l57.143-28.572h114.286l57.143 28.573 28.57 57.143v228.57l-28.57 57.144-57.143 28.57h-114.286l-57.143-28.57-28.57-57.143v-57.143l285.713-57.143m-457.143 200h-228.57m142.856-400v514.287l-28.572 57.143-57.142 28.57h-57.143m-457.143-600v314.287l28.57 57.143 57.144 28.57h114.286l57.143-28.57m-257.143-342.857l57.143-28.572h142.857l57.143 28.573 28.57 57.143v57.143l-28.57 57.14-57.143 28.573h-142.857l-57.143 28.57m-285.714 142.858v-400m0 342.86l-28.572 28.57-57.142 28.57h-85.715l-57.143-28.57-28.57-57.143v-314.286m-742.858 0v600m0-285.713H128978m0-314.286v600m-542.858-600v314.287l28.57 57.143 57.144 28.57h114.286l57.143-28.57m-257.143-342.857l57.143-28.572h142.857l57.143 28.573 28.57 57.143v57.143l-28.57 57.14-57.143 28.573h-142.857l-57.143 28.57m-285.714-257.142v400m0-57.14l-28.572 28.57-57.142 28.57H127978l-57.144-28.57-28.57-57.143v-314.286m0 314.287l-28.572 57.143-57.143 28.57h-85.714l-57.142-28.57-28.572-57.143v-314.286m-285.714 0v400m0-57.14l-28.572 28.57-57.142 28.57H127178l-57.144-28.57-28.57-57.143v-314.286m0 314.287l-28.572 57.143-57.143 28.57h-85.714l-57.142-28.57-28.572-57.143v-314.286m-285.714 0v400m0 200l28.57-28.57-28.57-28.57-28.572 28.57 28.572 28.57v-57.14m-285.714-142.86v-400m0 342.86l-28.572 28.57-57.142 28.57h-85.715l-57.143-28.57-28.57-57.143v-314.286m-542.858 400v-485.713l28.57-57.143 28.573-28.57 57.143-28.573h85.714l57.143 28.573m-257.143 200l57.143-28.572h114.286l57.142 28.573 28.572 28.57 28.57 57.144v171.43l-28.57 57.142-28.572 28.57-57.142 28.57h-114.286l-57.143-28.57m-542.857-371.43v314.287l28.57 57.143 57.144 28.57h114.287l57.143-28.57m-257.143-342.857l57.143-28.572h142.857l57.143 28.573 28.57 57.143v57.143l-28.57 57.14-57.143 28.573H124978l-57.143 28.57m7257.143-824.142v-600m0 571.43l-57.143 28.57h-114.286l-57.142-28.57-28.57-28.57-28.572-57.144v-171.43l28.57-57.142 28.572-28.57 57.143-28.573h114.287l57.143 28.573m-542.857-28.572v400m0-114.284l-28.572 57.143-28.57 28.57-57.143 28.57h-57.143m-200 0v-514.284l28.57-57.143 57.144-28.572h28.572m-114.286 800l28.57-28.57-28.57-28.57-28.572 28.57 28.572 28.57v-57.14m-542.857-514.287l57.143-28.572h114.286l57.142 28.573 28.572 28.57 28.57 57.144v171.43l-28.57 57.142-28.572 28.57-57.142 28.57H130778l-57.143-28.57m-171.43 28.57h-228.57m142.857 200v-514.284l-28.572-57.143-57.142-28.572h-57.143m-200 57.144l-28.572-28.57 28.572-28.573 28.57 28.573-28.57 28.57v-57.142m-285.714 400v-400m0 342.86l-28.572 28.57-57.14 28.57h-85.716l-57.143-28.57-28.57-57.143v-314.286m-514.286 28.573l57.143-28.572h114.286l57.143 28.573 28.57 57.143v228.57l-28.57 57.144-57.143 28.57h-114.286l-57.143-28.57-28.57-57.143v-57.143l285.713-57.143m-457.143 200h-228.57m142.856 200v-514.284l-28.572-57.143-57.142-28.572h-57.143m-1000 0l200 285.716m142.857-285.715v600h-228.572l-57.142-28.57-28.572-28.57-28.57-57.144v-85.715l28.57-57.14 28.572-28.573 57.142-28.57H127978m-714.286 314.284h-57.143l-57.142-28.57-28.57-28.57-28.572-57.144-28.572-114.286v-142.857l28.572-114.286 28.57-57.143 28.572-28.57 57.143-28.573h57.144l57.143 28.573 28.57 28.57 28.573 57.144 28.57 114.286v142.857l-28.57 114.286-28.572 57.143-28.57 28.57-57.144 28.57m-457.143-542.856l-28.57-28.57 28.57-28.573 28.572 28.573-28.57 28.57v-57.142m-400 600h-57.144l-57.143-28.57-28.57-28.57-28.572-57.144-28.572-114.286v-142.857l28.573-114.286 28.57-57.143 28.572-28.57 57.143-28.573h57.143l57.144 28.573 28.57 28.57 28.573 57.144 28.57 114.286v142.857l-28.57 114.286-28.572 57.143-28.57 28.57-57.144 28.57m-457.142-542.856l-28.572-28.57 28.572-28.573 28.57 28.573-28.57 28.57v-57.142m-400 600h-57.143l-57.143-28.57-28.57-28.57-28.572-57.144-28.572-114.286v-142.857l28.572-114.286 28.57-57.143 28.572-28.57 57.143-28.573h57.143l57.143 28.573 28.572 28.57 28.572 57.144 28.57 114.286v142.857l-28.57 114.286-28.572 57.143-28.57 28.57-57.144 28.57m6417.714-9563.5v600m-285.714-600v600l-342.857-600v600m-285.713-600v600h-228.572l-57.142-28.57-28.572-28.57-28.57-57.144v-85.715l28.57-57.14 28.573-28.573 57.142-28.57h228.572m-600 314.284v-485.713l-28.572-57.143-28.57-28.57-57.144-28.573h-114.285l-57.142 28.573-28.572 28.57-28.57 57.144v485.714m-200 0h-342.857m171.43-600v600m-897.145 13370h285.714v600m-485.714-600v600m-285.714-600v600h-228.572L128070-81615l-28.572-28.57-28.57-57.144v-85.715l28.57-57.14 28.572-28.573 57.142-28.57h228.572m-714.286 314.284h-114.286L127470-81615l-57.143-57.143-28.572-114.286v-200l28.572-114.284 57.143-57.143 57.142-28.572h114.286l57.143 28.573 57.144 57.143 28.57 114.285v200l-28.57 114.287-57.143 57.143-57.142 28.57m6394.286-600h285.714v600m-600 0h-114.286L133550-81615l-57.143-57.143-28.572-114.286v-200l28.572-114.284 57.143-57.143 57.142-28.572h114.286l57.143 28.573 57.144 57.143 28.57 114.285v200l-28.57 114.287-57.143 57.143-57.142 28.57m-485.714-428.57H132950m342.857-171.43l-200 600-200-600m-200 0v600H132550l-85.715-28.57-57.142-57.143-28.572-57.143-28.57-114.285v-85.716l28.57-114.285 28.573-57.144 57.142-57.143 85.715-28.572h142.857" class="_board-ss"/></g><use class="_board-cf" mask="url(#_bottom-cu_finish-mask)" xlink:href="#_bottom-sm"/></g><style>._board-fr4{color:#4d542c}._board-cu{color:#d3d3d3}._board-cf{color:#daa520}._board-sm{color:#040;opacity:.9}._board-ss{color:#fff}._board-sp{color:silver;opacity:0}._board-out{color:#000}</style></svg>